<svg width="24" height="24" viewBox="0 0 24 24" fill="none" xmlns="http://www.w3.org/2000/svg">
  <!-- Cloud top -->
  <path d="M6 10H18C19.66 10 21 8.66 21 7C21 5.34 19.66 4 18 4C17.76 4 17.52 4.03 17.3 4.08C16.79 2.86 15.6 2 14.2 2C12.9 2 11.76 2.75 11.21 3.84C10.73 3.31 10.05 3 9.3 3C7.92 3 6.8 4.12 6.8 5.5C6.8 5.67 6.82 5.84 6.86 6H6C4.34 6 3 7.34 3 9C3 9.56 3.16 10.08 3.44 10.52H6V10Z" fill="#94A3B8"/>
  <!-- Fog lines -->
  <rect x="3" y="13" width="18" height="2" rx="1" fill="#CBD5E1"/>
  <rect x="5" y="17" width="14" height="2" rx="1" fill="#CBD5E1"/>
  <rect x="3" y="21" width="18" height="2" rx="1" fill="#CBD5E1"/>
</svg>
