<svg width="24" height="24" viewBox="0 0 24 24" fill="none" xmlns="http://www.w3.org/2000/svg">
  <!-- Cloud -->
  <path d="M6.5 15H17.5C19.43 15 21 13.43 21 11.5C21 9.74 19.68 8.29 17.97 8.06C17.72 6.33 16.24 5 14.5 5C12.86 5 11.45 6.17 11.07 7.75C10.4 7.28 9.56 7 8.66 7C6.54 7 4.82 8.58 4.82 10.5C4.82 12.43 6.39 14 8.5 14H6.5V15Z" fill="currentColor"/>
  <!-- Snowflake dots -->
  <circle cx="8" cy="18.5" r="1.2" fill="currentColor"/>
  <circle cx="12" cy="18.5" r="1.2" fill="currentColor"/>
  <circle cx="16" cy="18.5" r="1.2" fill="currentColor"/>
  <circle cx="10" cy="21.5" r="1.2" fill="currentColor"/>
  <circle cx="14" cy="21.5" r="1.2" fill="currentColor"/>
</svg>
